<svg fill="#0D131A" viewBox="0 0 205.16000000000003 17.342" height="100%" width="100%" xmlns="http://www.w3.org/2000/svg"><path preserveAspectRatio="none" d="M5.24 17.34L5.24 17.34Q3.61 17.34 2.24 16.73Q0.87 16.12 0 15.00L0 15.00L2.07 12.51Q2.74 13.39 3.47 13.83Q4.21 14.28 5.06 14.28L5.06 14.28Q7.34 14.28 7.34 11.61L7.34 11.61L7.34 3.96L1.68 3.96L1.68 0.97L11.04 0.97L11.04 11.41Q11.04 14.40 9.57 15.87Q8.10 17.34 5.24 17.34ZM25.41 17.07L22.06 17.07L22.06 14.65L21.83 14.12L21.83 9.80Q21.83 8.65 21.13 8.00Q20.42 7.36 18.98 7.36L18.98 7.36Q17.99 7.36 17.03 7.67Q16.08 7.98 15.41 8.51L15.41 8.51L14.12 6.00Q15.13 5.29 16.56 4.90Q17.99 4.51 19.46 4.51L19.46 4.51Q22.29 4.51 23.85 5.84Q25.41 7.18 25.41 10.00L25.41 10.00L25.41 17.07ZM18.29 17.25L18.29 17.25Q16.84 17.25 15.80 16.76Q14.77 16.26 14.21 15.41Q13.66 14.56 13.66 13.50L13.66 13.50Q13.66 12.40 14.20 11.57Q14.74 10.74 15.92 10.27Q17.09 9.80 18.98 9.80L18.98 9.80L22.26 9.80L22.26 11.89L19.37 11.89Q18.10 11.89 17.63 12.30Q17.16 12.72 17.16 13.34L17.16 13.34Q17.16 14.03 17.70 14.43Q18.24 14.83 19.18 14.83L19.18 14.83Q20.08 14.83 20.79 14.41Q21.50 13.98 21.83 13.16L21.83 13.16L22.38 14.81Q21.99 16.01 20.95 16.63Q19.92 17.25 18.29 17.25ZM36.18 4.51L36.18 4.51Q37.65 4.51 38.81 5.09Q39.97 5.68 40.64 6.89Q41.31 8.10 41.31 9.98L41.31 9.98L41.31 17.07L37.72 17.07L37.72 10.53Q37.72 9.04 37.06 8.33Q36.41 7.61 35.21 7.61L35.21 7.61Q34.36 7.61 33.68 7.97Q33.00 8.33 32.63 9.06Q32.25 9.80 32.25 10.95L32.25 10.95L32.25 17.07L28.66 17.07L28.66 4.69L32.09 4.69L32.09 8.12L31.44 7.08Q32.11 5.84 33.35 5.17Q34.59 4.51 36.18 4.51ZM50.69 17.25L50.69 17.25Q48.58 17.25 46.98 16.42Q45.38 15.59 44.50 14.16Q43.63 12.72 43.63 10.88L43.63 10.88Q43.63 9.02 44.49 7.58Q45.36 6.14 46.85 5.32Q48.35 4.51 50.23 4.51L50.23 4.51Q52.05 4.51 53.51 5.28Q54.97 6.05 55.82 7.49Q56.67 8.92 56.67 10.92L56.67 10.92Q56.67 11.13 56.65 11.40Q56.63 11.66 56.60 11.89L56.60 11.89L46.55 11.89L46.55 9.80L54.72 9.80L53.34 10.42Q53.34 9.45 52.95 8.74Q52.55 8.03 51.86 7.62Q51.17 7.22 50.25 7.22L50.25 7.22Q49.33 7.22 48.63 7.62Q47.93 8.03 47.54 8.75Q47.15 9.48 47.15 10.46L47.15 10.46L47.15 11.02Q47.15 12.03 47.60 12.80Q48.05 13.57 48.86 13.97Q49.68 14.38 50.78 14.38L50.78 14.38Q51.77 14.38 52.52 14.08Q53.27 13.78 53.89 13.18L53.89 13.18L55.80 15.25Q54.95 16.21 53.66 16.73Q52.37 17.25 50.69 17.25ZM64.12 17.25L64.12 17.25Q61.94 17.25 60.72 16.13Q59.50 15.02 59.50 12.81L59.50 12.81L59.50 1.96L63.09 1.96L63.09 12.76Q63.09 13.55 63.50 13.97Q63.92 14.40 64.63 14.40L64.63 14.40Q65.48 14.40 66.08 13.94L66.08 13.94L67.04 16.47Q66.49 16.86 65.72 17.05Q64.95 17.25 64.12 17.25ZM66.17 7.73L57.59 7.73L57.59 4.97L66.17 4.97L66.17 7.73ZM76.59 4.51L76.59 4.51Q78.06 4.51 79.22 5.09Q80.38 5.68 81.05 6.89Q81.72 8.10 81.72 9.98L81.72 9.98L81.72 17.07L78.13 17.07L78.13 10.53Q78.13 9.04 77.48 8.33Q76.82 7.61 75.62 7.61L75.62 7.61Q74.77 7.61 74.09 7.97Q73.42 8.33 73.04 9.06Q72.66 9.80 72.66 10.95L72.66 10.95L72.66 17.07L69.07 17.07L69.07 0L72.66 0L72.66 8.12L71.85 7.08Q72.52 5.84 73.76 5.17Q75.00 4.51 76.59 4.51ZM95.17 11.20L95.17 8.21L102.90 8.21L102.90 11.20L95.17 11.20ZM95.45 3.96L95.45 17.07L91.72 17.07L91.72 0.97L103.89 0.97L103.89 3.96L95.45 3.96ZM112.31 17.25L112.31 17.25Q110.19 17.25 108.59 16.42Q107.00 15.59 106.12 14.16Q105.25 12.72 105.25 10.88L105.25 10.88Q105.25 9.02 106.11 7.58Q106.97 6.14 108.47 5.32Q109.96 4.51 111.85 4.51L111.85 4.51Q113.67 4.51 115.13 5.28Q116.59 6.05 117.44 7.49Q118.29 8.92 118.29 10.92L118.29 10.92Q118.29 11.13 118.27 11.40Q118.24 11.66 118.22 11.89L118.22 11.89L108.17 11.89L108.17 9.80L116.33 9.80L114.95 10.42Q114.95 9.45 114.56 8.74Q114.17 8.03 113.48 7.62Q112.79 7.22 111.87 7.22L111.87 7.22Q110.95 7.22 110.25 7.62Q109.55 8.03 109.16 8.75Q108.77 9.48 108.77 10.46L108.77 10.46L108.77 11.02Q108.77 12.03 109.22 12.80Q109.66 13.57 110.48 13.97Q111.30 14.38 112.40 14.38L112.40 14.38Q113.39 14.38 114.14 14.08Q114.89 13.78 115.51 13.18L115.51 13.18L117.42 15.25Q116.56 16.21 115.28 16.73Q113.99 17.25 112.31 17.25ZM124.27 17.07L120.68 17.07L120.68 4.69L124.11 4.69L124.11 8.19L123.63 7.18Q124.18 5.86 125.40 5.19Q126.62 4.51 128.36 4.51L128.36 4.51L128.36 7.82Q128.13 7.80 127.95 7.79Q127.77 7.77 127.56 7.77L127.56 7.77Q126.09 7.77 125.18 8.61Q124.27 9.45 124.27 11.22L124.27 11.22L124.27 17.07ZM138.12 4.51L138.12 4.51Q139.59 4.51 140.75 5.09Q141.91 5.68 142.58 6.89Q143.24 8.10 143.24 9.98L143.24 9.98L143.24 17.07L139.66 17.07L139.66 10.53Q139.66 9.04 139.00 8.33Q138.35 7.61 137.15 7.61L137.15 7.61Q136.30 7.61 135.62 7.97Q134.94 8.33 134.56 9.06Q134.18 9.80 134.18 10.95L134.18 10.95L134.18 17.07L130.59 17.07L130.59 4.69L134.02 4.69L134.02 8.12L133.38 7.08Q134.04 5.84 135.29 5.17Q136.53 4.51 138.12 4.51ZM157.44 17.07L154.08 17.07L154.08 14.65L153.85 14.12L153.85 9.80Q153.85 8.65 153.15 8.00Q152.44 7.36 151.00 7.36L151.00 7.36Q150.01 7.36 149.05 7.67Q148.10 7.98 147.43 8.51L147.43 8.51L146.14 6.00Q147.15 5.29 148.58 4.90Q150.01 4.51 151.48 4.51L151.48 4.51Q154.31 4.51 155.87 5.84Q157.44 7.18 157.44 10.00L157.44 10.00L157.44 17.07ZM150.31 17.25L150.31 17.25Q148.86 17.25 147.82 16.76Q146.79 16.26 146.23 15.41Q145.68 14.56 145.68 13.50L145.68 13.50Q145.68 12.40 146.22 11.57Q146.76 10.74 147.94 10.27Q149.11 9.80 151.00 9.80L151.00 9.80L154.28 9.80L154.28 11.89L151.39 11.89Q150.12 11.89 149.65 12.30Q149.18 12.72 149.18 13.34L149.18 13.34Q149.18 14.03 149.72 14.43Q150.26 14.83 151.20 14.83L151.20 14.83Q152.10 14.83 152.81 14.41Q153.53 13.98 153.85 13.16L153.85 13.16L154.40 14.81Q154.01 16.01 152.97 16.63Q151.94 17.25 150.31 17.25ZM168.20 4.51L168.20 4.51Q169.67 4.51 170.83 5.09Q171.99 5.68 172.66 6.89Q173.33 8.10 173.33 9.98L173.33 9.98L173.33 17.07L169.74 17.07L169.74 10.53Q169.74 9.04 169.08 8.33Q168.43 7.61 167.23 7.61L167.23 7.61Q166.38 7.61 165.70 7.97Q165.03 8.33 164.65 9.06Q164.27 9.80 164.27 10.95L164.27 10.95L164.27 17.07L160.68 17.07L160.68 4.69L164.11 4.69L164.11 8.12L163.46 7.08Q164.13 5.84 165.37 5.17Q166.61 4.51 168.20 4.51ZM181.88 17.25L181.88 17.25Q180.14 17.25 178.73 16.46Q177.33 15.66 176.51 14.24Q175.70 12.81 175.70 10.88L175.70 10.88Q175.70 8.92 176.51 7.50Q177.33 6.07 178.73 5.29Q180.14 4.51 181.88 4.51L181.88 4.51Q183.45 4.51 184.62 5.20Q185.79 5.89 186.44 7.29Q187.08 8.69 187.08 10.88L187.08 10.88Q187.08 13.04 186.46 14.46Q185.84 15.87 184.68 16.56Q183.52 17.25 181.88 17.25ZM182.51 14.31L182.51 14.31Q183.38 14.31 184.09 13.89Q184.81 13.48 185.23 12.71Q185.66 11.94 185.66 10.88L185.66 10.88Q185.66 9.80 185.23 9.04Q184.81 8.28 184.09 7.87Q183.38 7.45 182.51 7.45L182.51 7.45Q181.61 7.45 180.90 7.87Q180.18 8.28 179.76 9.04Q179.33 9.80 179.33 10.88L179.33 10.88Q179.33 11.94 179.76 12.71Q180.18 13.48 180.90 13.89Q181.61 14.31 182.51 14.31ZM189.18 17.07L185.75 17.07L185.75 14.54L185.82 10.86L185.59 7.20L185.59 0L189.18 0L189.18 17.07ZM198.38 17.25L198.38 17.25Q196.40 17.25 194.87 16.42Q193.34 15.59 192.45 14.16Q191.57 12.72 191.57 10.88L191.57 10.88Q191.57 9.02 192.45 7.58Q193.34 6.14 194.87 5.32Q196.40 4.51 198.38 4.51L198.38 4.51Q200.33 4.51 201.87 5.32Q203.41 6.14 204.29 7.57Q205.16 8.99 205.16 10.88L205.16 10.88Q205.16 12.72 204.29 14.16Q203.41 15.59 201.87 16.42Q200.33 17.25 198.38 17.25ZM198.38 14.31L198.38 14.31Q199.27 14.31 199.99 13.89Q200.70 13.48 201.11 12.71Q201.53 11.94 201.53 10.88L201.53 10.88Q201.53 9.80 201.11 9.04Q200.70 8.28 199.99 7.87Q199.27 7.45 198.38 7.45L198.38 7.45Q197.48 7.45 196.77 7.87Q196.05 8.28 195.63 9.04Q195.20 9.80 195.20 10.88L195.20 10.88Q195.20 11.94 195.63 12.71Q196.05 13.48 196.77 13.89Q197.48 14.31 198.38 14.31Z"></path></svg>